<svg width="25" height="26" viewBox="0 0 25 26" fill="none" xmlns="http://www.w3.org/2000/svg">
<path d="M18.6865 13.6201C18.6768 11.8281 19.4873 10.4756 21.1279 9.47949C20.21 8.16602 18.8232 7.44336 16.9922 7.30176C15.2588 7.16504 13.3643 8.3125 12.6709 8.3125C11.9385 8.3125 10.2588 7.35059 8.94043 7.35059C6.21582 7.39453 3.32031 9.52344 3.32031 13.8545C3.32031 15.1338 3.55469 16.4554 4.02344 17.8193C4.64844 19.6113 6.9043 24.0059 9.25781 23.9326C10.4883 23.9033 11.3574 23.0586 12.959 23.0586C14.5117 23.0586 15.3174 23.9326 16.6895 23.9326C19.0625 23.8984 21.1035 19.9043 21.6992 18.1074C18.5156 16.6084 18.6865 13.7129 18.6865 13.6201ZM15.9229 5.60254C17.2559 4.02051 17.1338 2.58008 17.0947 2.0625C15.918 2.13086 14.5557 2.86328 13.7793 3.7666C12.9248 4.7334 12.4219 5.92969 12.5293 7.27734C13.8037 7.375 14.9658 6.7207 15.9229 5.60254Z" fill="black"/>
</svg>
