<svg width="25" height="26" viewBox="0 0 25 26" fill="none" xmlns="http://www.w3.org/2000/svg">
<g clip-path="url(#clip0_29_791)">
<path d="M24.2188 13.1094C24.2188 6.41992 18.7988 1 12.1094 1C5.41992 1 0 6.41992 0 13.1094C0 19.1533 4.42822 24.1631 10.2173 25.0723V16.6099H7.14111V13.1094H10.2173V10.4414C10.2173 7.40674 12.0239 5.73047 14.791 5.73047C16.1162 5.73047 17.502 5.9668 17.502 5.9668V8.94531H15.9746C14.4707 8.94531 14.0015 9.87891 14.0015 10.8364V13.1094H17.3599L16.8228 16.6099H14.0015V25.0723C19.7905 24.1631 24.2188 19.1533 24.2188 13.1094Z" fill="white"/>
</g>
<defs>
<clipPath id="clip0_29_791">
<rect width="25" height="25" fill="white" transform="translate(0 0.5)"/>
</clipPath>
</defs>
</svg>
