<svg width="69" height="64" viewBox="0 0 69 64" fill="none" xmlns="http://www.w3.org/2000/svg">
<g filter="url(#filter0_d_106_400)">
<rect x="4" width="55.5208" height="55.5208" rx="15" fill="#3064B9"/>
</g>
<path d="M66 36.636C67.3333 37.4058 67.3333 39.3303 66 40.1001L57.7813 44.8452C56.4479 45.615 54.7813 44.6528 54.7813 43.1132L54.7813 33.623C54.7813 32.0834 56.4479 31.1211 57.7813 31.8909L66 36.636Z" fill="#3064B9"/>
<path d="M32 40.5C25.0963 40.5 19.5 34.9037 19.5 28C19.5 21.0963 25.0963 15.5 32 15.5C38.9037 15.5 44.5 21.0963 44.5 28C44.5 34.9037 38.9037 40.5 32 40.5ZM29.5625 26.75C29.6708 26.2183 29.9156 25.724 30.2729 25.3157C30.6303 24.9074 31.0877 24.5992 31.6003 24.4213C32.1129 24.2435 32.663 24.2022 33.1964 24.3014C33.7298 24.4007 34.2282 24.6371 34.6425 24.9875L36.7687 23.5712C36.0386 22.776 35.095 22.2076 34.0507 21.934C33.0063 21.6604 31.9052 21.6931 30.8789 22.0282C29.8526 22.3634 28.9445 22.9868 28.2629 23.8241C27.5813 24.6613 27.155 25.6771 27.035 26.75H25.75V29.25H27.0338C27.1536 30.3232 27.5798 31.3392 28.2615 32.1767C28.9431 33.0143 29.8515 33.6378 30.878 33.973C31.9046 34.3082 33.0059 34.3409 34.0504 34.067C35.095 33.7932 36.0387 33.2244 36.7687 32.4288L34.6425 31.0113C34.2283 31.3616 33.73 31.5981 33.1967 31.6974C32.6633 31.7968 32.1133 31.7555 31.6007 31.5778C31.0882 31.4001 30.6307 31.092 30.2733 30.6839C29.9159 30.2757 29.671 29.7816 29.5625 29.25L35.75 29.2513V26.7513H29.5625V26.75Z" fill="white"/>
<defs>
<filter id="filter0_d_106_400" x="0" y="0" width="63.5205" height="63.5208" filterUnits="userSpaceOnUse" color-interpolation-filters="sRGB">
<feFlood flood-opacity="0" result="BackgroundImageFix"/>
<feColorMatrix in="SourceAlpha" type="matrix" values="0 0 0 0 0 0 0 0 0 0 0 0 0 0 0 0 0 0 127 0" result="hardAlpha"/>
<feOffset dy="4"/>
<feGaussianBlur stdDeviation="2"/>
<feComposite in2="hardAlpha" operator="out"/>
<feColorMatrix type="matrix" values="0 0 0 0 0 0 0 0 0 0 0 0 0 0 0 0 0 0 0.25 0"/>
<feBlend mode="normal" in2="BackgroundImageFix" result="effect1_dropShadow_106_400"/>
<feBlend mode="normal" in="SourceGraphic" in2="effect1_dropShadow_106_400" result="shape"/>
</filter>
</defs>
</svg>
