<svg width="103" height="93" viewBox="0 0 103 93" fill="none" xmlns="http://www.w3.org/2000/svg">
<g filter="url(#filter0_d_106_399)">
<rect x="4" y="0.4375" width="84.5625" height="84.5625" rx="20" fill="white"/>
</g>
<path d="M98.5 56.2769C100.5 57.4316 100.5 60.3184 98.5 61.4731L85.8438 68.7802C83.8438 69.9349 81.3438 68.4915 81.3438 66.1821L81.3438 51.5679C81.3438 49.2585 83.8438 47.8151 85.8438 48.9698L98.5 56.2769Z" fill="white"/>
<path d="M41.3337 62.0787V54.2667C41.3337 51.273 43.6553 48.9187 47.09 47.5747C44.8749 46.7509 42.5303 46.3305 40.167 46.3334C35.757 46.3334 31.683 47.773 28.3907 50.2067C29.4115 53.0938 31.1255 55.6861 33.3822 57.7561C35.639 59.8261 38.3693 61.3104 41.3337 62.0787ZM62.0537 53.534C61.132 52.2904 58.0637 51 54.167 51C49.4863 51 46.0003 52.8597 46.0003 54.2667V62.6667C49.2386 62.6685 52.4216 61.8274 55.2363 60.2261C58.051 58.6249 60.4005 56.3186 62.0537 53.534ZM40.2837 42.8334C41.676 42.8334 43.0114 42.2802 43.996 41.2957C44.9805 40.3111 45.5337 38.9757 45.5337 37.5834C45.5337 36.191 44.9805 34.8556 43.996 33.871C43.0114 32.8865 41.676 32.3334 40.2837 32.3334C38.8913 32.3334 37.5559 32.8865 36.5713 33.871C35.5868 34.8556 35.0337 36.191 35.0337 37.5834C35.0337 38.9757 35.5868 40.3111 36.5713 41.2957C37.5559 42.2802 38.8913 42.8334 40.2837 42.8334ZM54.167 45.1667C55.4047 45.1667 56.5917 44.675 57.4668 43.7999C58.342 42.9247 58.8337 41.7377 58.8337 40.5C58.8337 39.2623 58.342 38.0754 57.4668 37.2002C56.5917 36.325 55.4047 35.8334 54.167 35.8334C52.9293 35.8334 51.7423 36.325 50.8672 37.2002C49.992 38.0754 49.5003 39.2623 49.5003 40.5C49.5003 41.7377 49.992 42.9247 50.8672 43.7999C51.7423 44.675 52.9293 45.1667 54.167 45.1667ZM46.0003 67.3334C33.1133 67.3334 22.667 56.887 22.667 44C22.667 31.113 33.1133 20.6667 46.0003 20.6667C58.8873 20.6667 69.3337 31.113 69.3337 44C69.3337 56.887 58.8873 67.3334 46.0003 67.3334Z" fill="#3064B9"/>
<defs>
<filter id="filter0_d_106_399" x="0" y="0.4375" width="92.5625" height="92.5625" filterUnits="userSpaceOnUse" color-interpolation-filters="sRGB">
<feFlood flood-opacity="0" result="BackgroundImageFix"/>
<feColorMatrix in="SourceAlpha" type="matrix" values="0 0 0 0 0 0 0 0 0 0 0 0 0 0 0 0 0 0 127 0" result="hardAlpha"/>
<feOffset dy="4"/>
<feGaussianBlur stdDeviation="2"/>
<feComposite in2="hardAlpha" operator="out"/>
<feColorMatrix type="matrix" values="0 0 0 0 0 0 0 0 0 0 0 0 0 0 0 0 0 0 0.25 0"/>
<feBlend mode="normal" in2="BackgroundImageFix" result="effect1_dropShadow_106_399"/>
<feBlend mode="normal" in="SourceGraphic" in2="effect1_dropShadow_106_399" result="shape"/>
</filter>
</defs>
</svg>
